<svg xmlns="http://www.w3.org/2000/svg" width="431.82mm" height="294.8mm" viewBox="0 0 1224.05 835.65"><g id="Layer_2" data-name="Layer 2"><g id="Layer_1-2" data-name="Layer 1"><path d="M334.79,3.07A1424.73,1424.73,0,0,1,239.05,115c-43.91,46.28-89.56,90.71-141.48,128.19-29.24,21.11-60.18,38.68-95,46.73q0,4.07-.23,8.09c26.51-6,52-16.85,76.47-32.24,46.85-29.44,87.45-66.49,126.72-104.93A1442.64,1442.64,0,0,0,345.24,2.49C341.76,2.71,338.27,2.91,334.79,3.07Z"/><path d="M244,1.9a425.12,425.12,0,0,1-47.56,60c-30.33,32-53.53,67.86-75.37,105.5a483.36,483.36,0,0,1-47,67.12c-16.61,19.87-38.95,29.23-65.91,22.11-1.89-.5-3.81-.93-5.73-1.33q-.54,4.5-1.38,8.95c1.49.3,3,.58,4.48.87,30,5.94,53.81-2.84,74.59-24,22.05-22.43,37.15-49.52,52.61-76.4,15.77-27.41,30.27-55.44,52.92-78.48,25.67-26.11,48.39-53.91,67.39-83.78Z"/><path d="M224.82.94l-3.29-.1c-.73,1-1.46,2.06-2.2,3.08-18.06,25-40.89,46.57-59.35,71.32s-34.67,51.21-50.88,77.53c-14.87,24.15-27.63,49.69-48.21,69.83C49.16,234.08,36.05,243.42,18.26,240q-7.58-1.44-15.16-2.84c.13,2.87.17,5.73.08,8.56l11.05,2.14c19.47,3.79,35.22-2.72,49.11-15.73C82.43,214.27,95.53,192.08,108.9,170c16.88-27.85,32.72-56.49,51.76-82.82,16-22.08,37-40.47,53.78-62q9.19-11.77,17.51-24C229.57,1.08,227.2,1,224.82.94Z"/><path d="M177.85,1a288.44,288.44,0,0,1-45.79,69.61C111.7,93.5,91,116.08,70.4,138.83c-19.09,21.12-39.72,40-67.95,47.26-.36,3-.88,6-1.49,9a98.53,98.53,0,0,0,38.12-17.88C56.5,163.83,71.76,147.42,87,131.38c21.78-23,43.87-45.83,63.61-70.51A289.19,289.19,0,0,0,187.89,0C184.55.33,181.2.67,177.85,1Z"/><path d="M130.34,1.37l-.07.11C100.05,45.89,62.07,83.23,19,115a97.51,97.51,0,0,1-16.63,9.72c-.12,2.3-.26,4.62-.41,6.93A124.1,124.1,0,0,0,32,112.41C51.34,95.85,69.46,77.9,88,60.47a294,294,0,0,0,48.7-59Q133.54,1.35,130.34,1.37Z"/><path d="M89.63,3.36q-33.26,44-88.21,55.15c.07,1.12.13,2.24.19,3.36A156.45,156.45,0,0,0,94.14,3.24C92.64,3.29,91.14,3.33,89.63,3.36Z"/><path d="M589.23,1.43l-5.59.62c-17,36.72-36.58,72.21-57.82,106.89A1407,1407,0,0,1,346,343c-43.9,46.28-89.55,90.71-141.47,128.19-34.88,25.18-72.16,45.33-115.61,50.3-28.78,3.28-58,5.22-84.89-6.34-.24,2.78-.57,5.56-1,8.32a88.14,88.14,0,0,0,21.71,5.84c57.89,8.11,111.51-4.41,161-35.54,46.85-29.44,87.45-66.49,126.71-104.93A1440.84,1440.84,0,0,0,482.4,189.29c42.1-59.71,80-121.72,110.17-187.93Z"/><path d="M472.07,1.08c-1.86,14.05-3.19,28.2-6.51,41.89-16.82,69.39-51.36,130-100.13,181.43-30.34,32-53.53,67.87-75.38,105.51a483,483,0,0,1-47,67.12c-16.61,19.86-38.95,29.23-65.91,22.11-9.75-2.58-19.92-3.56-29.86-5.42-48.24-9-96.53-17.8-144.71-27.15l-.33,1.76c-.42,2.3-.75,4.67-1.18,7,57.76,11,115.77,20.85,173.45,32.28,30,5.94,53.81-2.84,74.59-24,22-22.43,37.15-49.53,52.61-76.41,15.77-27.4,30.27-55.44,52.92-78.47,60.79-61.83,105.12-133.13,122.45-219,1.92-9.53,3-19.23,4-28.94C478.11.93,475.09,1,472.07,1.08Z"/><path d="M429.51,2c-2.21.37-4.48.65-6.76.87-11,45.49-31.51,87.26-59.33,125.75-18.07,25-40.89,46.57-59.35,71.33s-34.68,51.2-50.88,77.52c-14.87,24.15-27.64,49.69-48.21,69.83-11.73,11.48-24.84,20.82-42.63,17.43-53.58-10.22-107.53-18.59-161.07-29-.06,1.8-.14,3.6-.25,5.4.11.39.23.78.34,1.18q78.48,15.13,157,30.27c19.46,3.79,35.22-2.72,49.11-15.73C226.51,339,239.61,316.78,253,294.72c16.88-27.86,32.72-56.5,51.76-82.83,15.95-22.07,36.95-40.46,53.77-62,34.68-44.36,60.06-93.5,73-148.29C430.87,1.75,430.19,1.89,429.51,2Z"/><path d="M369.32.57,368,.69C349.58,56.1,295.37,127.58,260.57,166.74c-20.36,22.91-41.1,45.5-61.65,68.24-20.23,22.38-42.17,42.3-73,48.42C99,288.72,36.71,306.93,1.62,305.59c-.28,2.36-.63,4.7-1.05,7l0,.31a36.86,36.86,0,0,1,8.1-.07c35,3.31,129.56-16.88,158.89-39.47C185,260,200.27,243.57,215.48,227.54c21.78-23,43.87-45.84,63.61-70.51C315,112.14,363.59,61.32,372.42,5a5,5,0,0,1,2.09-3Q371.89,1.32,369.32.57Z"/><path d="M659.45,1.35c-.21.38-.41.76-.61,1.14Q563.22,181.19,435.94,348c-54.59,71.72-111.41,142-176.22,206.72-43.55,43.49-90.19,82.1-144.84,105.54-38,16.33-76.7,31.12-112.21,26.62Q2.6,692,2.49,697.12c9.82,1.23,20.94.44,31.65-1.63,73-14.09,140.35-50.46,202.26-106.83,58.54-53.31,109.11-112.94,158-173.64a2703.05,2703.05,0,0,0,211-301.35c22.46-37.32,43.92-74.82,64-112.56C666.09,1.16,662.77,1.25,659.45,1.35Z"/><path d="M683.21,1.14c-1.09,0-2.19,0-3.28,0-25.54,59.63-56.26,118.49-90,176.85Q488.33,353.36,355.57,515.84c-57,69.86-116.09,138.19-183,200.73-45,42-92.88,79-148.28,100.64-8.08,3.15-16.18,6.22-24.26,9.07v9.37c52-17.2,101.32-46.14,148.09-86,60.3-51.33,112.83-109.24,163.7-168.27A2702.17,2702.17,0,0,0,532.72,287.29C593.39,193.7,647.58,98.72,689.45,1.06,687.37,1.16,685.29,1.2,683.21,1.14Z"/><path d="M770.43,3.59c-.29.47-.59,1-.88,1.44a210.67,210.67,0,0,0-9.42,19c-2.71,6-4.87,12.26-9.06,17.15-2.38,2.78-5.16,5-9.47,4-21.4-5-42.87-8.75-64.16-15.63-.91-.29-1.92.2-2.88.33.06.28.11.56.17.84,3.21,1,6.42,2.25,9.64,3,18.85,4.51,37.7,8.89,56.54,13.37A10.55,10.55,0,0,0,752,43.65c3.91-4.33,6.26-9.8,8.68-15.23,3.06-6.86,5.84-13.93,9.46-20.39a50.4,50.4,0,0,1,3-4.64Z"/><path d="M812.7,2.4h-1.08C805.69,8.91,799.08,15,793.39,21.68c-6.79,8-12.91,16.33-19,24.68C768.76,54,763.79,62,756.46,68.66c-4.18,3.79-8.74,7-14.42,6.55-28.21-2.19-56.92-2.84-84.39-7.31-1.16-.19-2.72.58-4.1.9l0,1c4.16.65,8.23,1.56,12.48,1.91,24.8,2.05,49.66,3.94,74.48,6,6.21.51,11.54-1.93,16.47-6.25,6.78-5.92,11.75-12.94,16.8-19.93,6.38-8.82,12.44-17.84,19.48-26.28,5.89-7.07,13.3-13.21,19.46-20.15.79-.89,1.56-1.78,2.32-2.67Z"/><path d="M889.36,3.21Q887.52,5,885.64,6.76c-13.15,12.38-28.24,24.16-41.56,36.5s-25.72,25-38.11,37.61c-11.36,11.57-21.85,23.35-35.56,34.24-7.81,6.2-16,11.79-24.71,13.18-43.2,6.93-87.72,16-129,19.78-1.75.16-4.44,1.67-6.7,2.55l-.38,1.25c6.25-.6,12.28-.86,18.78-1.87,38-5.94,76-12.09,114-18.07,9.5-1.49,18.64-6.39,27.81-13.52,12.59-9.78,22.75-20.33,33-30.86,13-13.3,25.52-26.75,39.37-39.79,11.61-10.93,25.27-21.2,37.25-32Q887,9.26,893.62,2.78Z"/><path d="M920.93,44.28c-18,18.11-34.63,36.89-51.21,55.58-15.22,17.15-29.09,34.79-47.93,50.46-10.74,8.93-22.16,16.78-35,17.69-63.73,4.49-129.08,12.24-190.41,11.92-2.61,0-6.41,2-9.65,3.11-.13.67-.25,1.34-.38,2,9.28,0,18.29.54,27.89-.09,56-3.69,112.17-7.73,168.21-11.5,14-.94,27-7.52,39.59-17.74,17.34-14,30.9-29.71,44.64-45.34,17.35-19.74,34-39.78,52.76-58.95C935.14,35.35,954,20.68,970.26,4.8l1.49-1.48a59.13,59.13,0,0,1-7.06.24C950.22,17.18,934.76,30.37,920.93,44.28Z"/><path d="M1060.2,1.87c-19,19.55-39.88,38.09-58.15,58.06-22.16,24.22-42.36,49.6-62.52,74.85C921,158,904.41,182,880.83,202.56c-13.44,11.72-27.94,21.79-45.18,21.55-85.68-1.2-173.16,2.14-256.17-5.79-3.52-.33-8.42,2.19-12.67,3.38l-.27,2.87c12.55,1.12,24.81,3,37.72,3.26,75.31,1.42,150.82,2.37,226.17,3.69,18.85.34,35.56-7.69,51.4-21.06,21.75-18.37,38.19-39.58,54.88-60.72,21.07-26.68,41.22-53.88,64.21-79.57,19.27-21.54,43-40.64,63.06-61.84q3.11-3.28,6.14-6.59C1066.82,1.76,1063.51,1.79,1060.2,1.87Z"/><path d="M1171.38,4.12q-10.76,11-21.68,22C1086,89.89,1020.34,152,947.47,207.46c-49,37.29-100.34,69.33-157.63,85.27C747.3,304.57,704.29,314.6,668.23,302,625,287,575.23,290.43,524,297.1L521.23,301c5.19,1.21,10.06,4.05,15.63,3.37,47.73-5.83,92.48-5.14,132.25,8.58,10.47,3.61,23.4,4.66,36,3.94C779.38,312.62,851,285.57,919.83,238c65.13-45,123.21-97.38,179.74-151q42.83-40.62,83.51-82.62Q1177.23,4.29,1171.38,4.12Z"/><path d="M488.6,347.69a209.44,209.44,0,0,1,82.81,43c19.42,16.73,44.4,20,69.25,21.95,33.46,2.63,64.77-6.85,95.09-20.38,45.13-20.16,86.68-46.35,127.23-74.15A1108.87,1108.87,0,0,0,1036.3,171.35c37.4-39,71.5-80.43,99-126.75,1.76-3,5.49-4.87,8.3-7.27l2.2,1.84c-6.65,10.63-13,21.42-20,31.84-38.08,56.93-84.55,106.88-135.21,153.38a1137.62,1137.62,0,0,1-160.26,122.7C794.5,369.78,758,391.25,717.94,406.21c-42.3,15.8-84.63,17.28-126.8,2.91a62.07,62.07,0,0,1-20-11c-21.43-18.37-46.61-29.19-73.95-36.35-3.19-.83-5.73-3.85-8.57-5.86C486.21,350.64,488,348.33,488.6,347.69Z"/><path d="M1212.81,3.88l-.8,0a2285.3,2285.3,0,0,1-161.37,190.94c-61.25,65-124.74,127.92-196.26,183-48,37-99.06,68.1-157.55,81-43.44,9.56-87.5,17.08-126.17.31-46.38-20.11-98-20.37-150.95-17.22l-2.57,4c5.52,1.76,10.83,5.28,16.59,5,49.34-2.52,96.11,1.89,138.74,20.25,11.22,4.82,24.8,7,37.91,7.28C687.53,479.89,760,456,828,409.21c64.31-44.23,120.65-97.09,175.27-151.49A2328.94,2328.94,0,0,0,1224.05,3.86,59.42,59.42,0,0,1,1212.81,3.88Z"/></g></g></svg>